<?xml version="1.0" encoding="UTF-8"?>
<svg id="Livello_1" data-name="Livello 1" xmlns="http://www.w3.org/2000/svg" viewBox="0 0 1080 1080">
  <defs>
    <style>
      .cls-1 {
        fill: #f4af00;
      }

      .cls-1, .cls-2, .cls-3 {
        stroke-width: 0px;
      }

      .cls-2 {
        fill: #fff;
      }

      .cls-3 {
        fill: #7a2426;
      }
    </style>
  </defs>
  <g>
    <circle class="cls-2" cx="540" cy="540" r="438.54"/>
    <path class="cls-1" d="M540,71.39c258.81,0,468.61,209.8,468.61,468.61s-209.8,468.61-468.61,468.61S71.39,798.81,71.39,540,281.19,71.39,540,71.39M540,0C467.13,0,396.41,14.29,329.79,42.47c-32.01,13.54-62.88,30.3-91.75,49.8-28.58,19.31-55.45,41.48-79.87,65.9-24.42,24.42-46.59,51.29-65.9,79.87-19.51,28.87-36.26,59.74-49.8,91.75C14.29,396.41,0,467.13,0,540s14.29,143.59,42.46,210.21c13.54,32.01,30.3,62.88,49.8,91.75,19.31,28.58,41.48,55.45,65.9,79.87,24.42,24.42,51.29,46.59,79.87,65.9,28.87,19.51,59.74,36.26,91.75,49.8,66.62,28.18,137.35,42.47,210.21,42.47s143.59-14.29,210.21-42.47c32.01-13.54,62.88-30.3,91.75-49.8,28.58-19.31,55.45-41.48,79.87-65.9,24.42-24.42,46.59-51.29,65.9-79.87,19.51-28.87,36.26-59.74,49.8-91.75,28.18-66.62,42.46-137.35,42.46-210.21s-14.29-143.59-42.46-210.21c-13.54-32.01-30.3-62.88-49.8-91.75-19.31-28.58-41.48-55.45-65.9-79.87-24.42-24.42-51.29-46.59-79.87-65.9-28.87-19.51-59.74-36.26-91.75-49.8C683.59,14.29,612.87,0,540,0h0Z"/>
    <path class="cls-3" d="M540,1059.6c-70.12,0-138.18-13.74-202.27-40.85-61.88-26.17-117.44-63.63-165.15-111.33-47.7-47.7-85.16-103.27-111.33-165.15-27.11-64.09-40.85-132.14-40.85-202.27s13.75-138.18,40.85-202.27c26.17-61.88,63.63-117.44,111.33-165.15,47.7-47.7,103.27-85.16,165.15-111.33,64.09-27.11,132.15-40.85,202.27-40.85s138.18,13.75,202.27,40.85c61.88,26.17,117.44,63.63,165.15,111.33,47.7,47.7,85.16,103.27,111.33,165.15,27.11,64.09,40.85,132.14,40.85,202.27s-13.74,138.18-40.85,202.27c-26.17,61.88-63.63,117.44-111.33,165.15-47.7,47.7-103.27,85.16-165.15,111.33-64.09,27.11-132.14,40.85-202.27,40.85ZM540,122.38c-230.28,0-417.62,187.34-417.62,417.62s187.34,417.62,417.62,417.62,417.62-187.34,417.62-417.62S770.28,122.38,540,122.38Z"/>
    <g>
      <path class="cls-2" d="M196.26,889.08l-8.47-8.54,30.21-29.93,8.47,8.54-30.21,29.93Z"/>
      <path class="cls-2" d="M134.02,814.97l34.18-25.31,5.89,7.96-7.04,28.57,18.21-13.48,7.01,9.47-34.18,25.31-5.89-7.96,7.04-28.57-18.21,13.48-7.01-9.47Z"/>
      <path class="cls-2" d="M92.39,740.35l38.05-18.98,4.42,8.86-11.89,26.91,20.27-10.12,5.26,10.54-38.05,18.98-4.42-8.86,11.89-26.91-20.27,10.12-5.26-10.54Z"/>
      <path class="cls-2" d="M96.82,694.5c-12.24,3.58-24.04-3.41-27.86-16.47-3.82-13.06,2.34-25.31,14.59-28.89,12.24-3.58,24.04,3.41,27.86,16.47,3.82,13.06-2.34,25.31-14.59,28.89ZM86.96,660.8c-7.06,2.06-10.24,8.25-8.44,14.43,1.81,6.18,7.83,9.67,14.88,7.61,7.05-2.06,10.24-8.25,8.44-14.43-1.81-6.18-7.83-9.67-14.88-7.61Z"/>
      <path class="cls-2" d="M50.54,571.61l44.3,13.34,1.33,11.77-40.22,22.82-1.46-12.92,26.23-14.58-28.85-8.6-1.34-11.83Z"/>
      <path class="cls-2" d="M85.44,507.55l-.92,17.96,8.08,3.76-.63,12.26-41.51-20.92.6-11.83,43.43-16.64-.64,12.5-8.42,2.92ZM76.41,510.61l-13.87,4.77,13.31,6.15.56-10.92Z"/>
      <path class="cls-2" d="M97.9,422.58l9.32,2.04-8.15,37.2-7.36-1.61-20.27-26.39-4.47,20.41-9.32-2.04,7.84-35.78,7.36,1.61,20.27,26.39,4.78-21.84Z"/>
      <path class="cls-2" d="M78.08,376.4l4.16-11.29,39.9,14.69-4.16,11.29-39.9-14.69Z"/>
      <path class="cls-2" d="M117.22,336.26c-11.19-6.12-14.59-19.4-8.06-31.34,6.53-11.94,19.54-16.24,30.74-10.12,11.19,6.12,14.59,19.4,8.06,31.34-6.53,11.94-19.54,16.24-30.74,10.12ZM134.06,305.45c-6.45-3.53-13.08-1.41-16.17,4.24-3.09,5.65-1.3,12.38,5.15,15.9,6.45,3.53,13.08,1.41,16.17-4.24,3.09-5.65,1.3-12.38-5.15-15.9Z"/>
      <path class="cls-2" d="M170.68,217.53l33.14,26.64-6.2,7.72-29.42.43,17.66,14.19-7.38,9.18-33.14-26.64,6.2-7.72,29.42-.43-17.66-14.19,7.38-9.18Z"/>
      <path class="cls-2" d="M249.4,187.29l6.19,6.93-25.47,22.73-28.32-31.72,24.88-22.21,6.19,6.93-15.99,14.28,4.77,5.35,14.09-12.58,5.99,6.71-14.09,12.58,5.18,5.8,16.58-14.81Z"/>
      <path class="cls-2" d="M321.11,144.95l-.46-9.7c4.48.53,10.02-.35,14.42-2.56,4.45-2.24,5.56-4.36,4.63-6.21-3.03-6.02-22.42,9.24-29.51-4.87-3.41-6.78-.66-15.1,10.62-20.78,4.94-2.48,10.61-3.91,15.45-3.63l.7,9.64c-4.62-.12-8.69.7-12,2.37-4.5,2.27-5.37,4.61-4.41,6.5,2.92,5.81,22.28-9.37,29.32,4.63,3.33,6.62.64,15.05-10.65,20.73-6.24,3.14-13.27,4.57-18.11,3.88Z"/>
      <path class="cls-2" d="M379.53,98.95c-3.75-12.19,3.08-24.08,16.09-28.08,13.01-4,25.34,2,29.08,14.19,3.75,12.19-3.08,24.08-16.09,28.08-13.01,4-25.34-2-29.08-14.19ZM413.09,88.63c-2.16-7.03-8.39-10.13-14.54-8.24-6.16,1.89-9.56,7.96-7.4,14.99,2.16,7.03,8.39,10.13,14.54,8.24,6.15-1.89,9.56-7.96,7.4-14.99Z"/>
      <path class="cls-2" d="M460.93,77.58c-1.61-12.84,7.07-23.17,20.45-24.85,7.78-.98,14.4,1.07,19.14,5.68l-6.73,7.82c-3.05-2.86-6.53-4.2-10.57-3.69-6.93.87-11.15,6.3-10.24,13.53.91,7.23,6.33,11.45,13.27,10.58,4.04-.51,7.07-2.66,9.33-6.19l8.46,5.92c-3.46,5.64-9.37,9.26-17.14,10.23-13.38,1.68-24.35-6.19-25.96-19.03Z"/>
      <path class="cls-2" d="M540.78,50.08l12.03.19-.69,42.52-12.03-.19.69-42.52Z"/>
      <path class="cls-2" d="M619.91,91.29l-17.76-2.79-4.58,7.64-12.12-1.9,25.13-39.1,11.7,1.84,12.01,44.93-12.36-1.94-2.02-8.68ZM617.8,81.98l-3.29-14.29-7.51,12.6,10.8,1.69Z"/>
      <path class="cls-2" d="M679.27,69.99l11.43,3.75-10.28,31.34,19.28,6.32-2.97,9.06-30.71-10.07,13.25-40.4Z"/>
      <path class="cls-2" d="M762.96,140.99l-4.22,8.28-30.42-15.49,19.3-37.89,29.72,15.14-4.22,8.28-19.11-9.73-3.25,6.39,16.83,8.57-4.08,8.01-16.83-8.57-3.53,6.93,19.81,10.09Z"/>
      <path class="cls-2" d="M828.38,192.52l8.87-3.94c1.13,4.37,3.96,9.21,7.61,12.51,3.7,3.34,6.08,3.6,7.46,2.07,4.52-5.01-16.73-17.54-6.16-29.27,5.08-5.64,13.84-6.09,23.22,2.37,4.11,3.7,7.49,8.47,8.98,13.08l-8.73,4.15c-1.56-4.35-3.8-7.85-6.56-10.33-3.74-3.38-6.24-3.33-7.66-1.75-4.35,4.83,16.81,17.37,6.32,29.01-4.96,5.5-13.79,6.05-23.18-2.41-5.19-4.68-9.07-10.71-10.18-15.47Z"/>
      <path class="cls-2" d="M901.4,262.39l-11.24-14.04-8.54,2.56-7.67-9.58,44.92-11.92,7.4,9.25-21.42,41.27-7.82-9.77,4.36-7.77ZM906.13,254.1l7.21-12.77-14.04,4.24,6.83,8.54Z"/>
      <path class="cls-2" d="M959.6,286.66l5.92,10.47-28.71,16.24,9.99,17.66-8.3,4.7-15.91-28.13,37.01-20.94Z"/>
      <path class="cls-2" d="M973.69,395.5l-8.7,3.28-12.06-31.94,39.78-15.03,11.78,31.2-8.7,3.28-7.58-20.06-6.71,2.53,6.68,17.68-8.41,3.18-6.68-17.68-7.27,2.75,7.86,20.8Z"/>
      <path class="cls-2" d="M989.71,449.45l-1.29-6.43-11.08,2.23-2.37-11.79,41.69-8.38,3.83,19.06c2.29,11.38-2.17,19.71-11.7,21.62-6.13,1.23-11.26-.84-14.8-5.51l-11.3,11.63-2.54-12.63,9.56-9.79ZM1011.06,445.28l-1.32-6.55-12.21,2.45,1.32,6.55c.98,4.88,3.74,6.87,7.55,6.11,3.87-.78,5.64-3.67,4.66-8.56Z"/>
      <path class="cls-2" d="M1030.25,545.87l-42.51,1.22-.28-9.9,22.11-19.42-22.65.65-.34-11.78,42.51-1.22.28,9.9-22.11,19.42,22.65-.65.34,11.78Z"/>
      <path class="cls-2" d="M1027.37,590.12l-1.36,11.95-42.25-4.82,1.36-11.95,42.25,4.82Z"/>
      <path class="cls-2" d="M1007.21,652.12l3.2-12.66,9.25,2.33-9.32,36.93-9.25-2.33,3.18-12.6-31.98-8.07,2.94-11.66,31.98,8.07Z"/>
      <path class="cls-2" d="M955.27,727.92l7.1-16.52-6.27-6.33,4.85-11.27,31.66,34.04-4.68,10.88-46.51.51,4.94-11.5,8.91.19ZM964.81,728.19l14.66.35-10.34-10.4-4.32,10.05Z"/>
      <path class="cls-2" d="M939.07,824.89l-35.57-23.29,5.42-8.28,29.24-3.29-18.96-12.41,6.46-9.86,35.58,23.29-5.42,8.28-29.24,3.29,18.96,12.41-6.46,9.86Z"/>
      <path class="cls-2" d="M866.74,857.65l12.28-13.13-3.75-8.08,8.38-8.96,18.23,42.76-8.09,8.65-43.92-15.3,8.55-9.14,8.32,3.2ZM875.62,861.14l13.67,5.3-6.2-13.29-7.47,7.98Z"/>
    </g>
    <g>
      <path class="cls-2" d="M439.51,1016.97l-24.99-5.93-7.37,10.38-17.06-4.04,40.11-52.92,16.47,3.9,12.16,65.32-17.39-4.12-1.92-12.58ZM437.54,1003.49l-3.11-20.72-12.08,17.11,15.2,3.6Z"/>
      <path class="cls-2" d="M577.36,1000.11c.25,13.8-10.01,22.58-26.58,22.88l-10.59.19.29,15.88-17.18.31-1.1-60.74,27.77-.5c16.57-.3,27.14,8.1,27.39,21.98ZM560.01,1000.43c-.1-5.64-3.72-8.87-10.84-8.74l-9.54.17.32,17.79,9.54-.17c7.12-.13,10.61-3.49,10.51-9.04Z"/>
      <path class="cls-2" d="M640.4,1024.01l2.23-13.69c6.11,2.07,14.11,2.48,20.91.69,6.88-1.81,9.06-4.45,8.31-7.3-2.45-9.32-34.06,6.26-39.8-15.56-2.76-10.49,3.55-21.3,21.01-25.89,7.64-2.01,15.99-2.32,22.66-.48l-1.88,13.68c-6.42-1.54-12.35-1.6-17.47-.25-6.97,1.83-8.87,4.84-8.09,7.78,2.36,8.98,33.91-6.49,39.61,15.16,2.69,10.24-3.57,21.22-21.03,25.81-9.65,2.54-19.9,2.45-26.46.04Z"/>
    </g>
  </g>
  <g>
    <path class="cls-3" d="M306.6,553.98h-1.72c-41.43-.12-62.65-49.84-34.26-80.03.35-.37.7-.74,1.04-1.1,18.52-19.51,49.66-19.48,68.19.03.35.36.69.73,1.04,1.09,28.4,30.16,7.15,79.91-34.27,80.01Z"/>
    <path class="cls-3" d="M306.6,553.98h-1.72c-41.43-.12-62.65-49.84-34.26-80.03.35-.37.7-.74,1.04-1.1,18.52-19.51,49.66-19.48,68.19.03.35.36.69.73,1.04,1.09,28.4,30.16,7.15,79.91-34.27,80.01Z"/>
    <path class="cls-3" d="M775.1,553.98h-1.72c-41.43-.12-62.65-49.84-34.26-80.03.35-.37.7-.74,1.04-1.1,18.52-19.51,49.66-19.48,68.19.03.35.36.69.73,1.04,1.09,28.4,30.16,7.15,79.91-34.27,80.01Z"/>
    <path class="cls-3" d="M618.59,332.49c-13.59,31.56-43.34,51.22-77.63,51.3h-1.98c-34.24-.1-63.97-19.76-77.55-51.3-13.62-31.64-7.44-66.86,16.13-91.93l1.09-1.14c15.94-16.8,38.26-26.39,61.34-26.39s45.43,9.6,61.31,26.31l1.16,1.24c23.56,25.03,29.75,60.25,16.13,91.9Z"/>
    <path class="cls-3" d="M618.59,332.49c-13.59,31.56-43.34,51.22-77.63,51.3h-1.98c-34.24-.1-63.97-19.76-77.55-51.3-13.62-31.64-7.44-66.86,16.13-91.93l1.09-1.14c15.94-16.8,38.26-26.39,61.34-26.39s45.43,9.6,61.31,26.31l1.16,1.24c23.56,25.03,29.75,60.25,16.13,91.9Z"/>
    <path class="cls-3" d="M775.1,553.98h-1.72c-41.43-.12-62.65-49.84-34.26-80.03.35-.37.7-.74,1.04-1.1,18.52-19.51,49.66-19.48,68.19.03.35.36.69.73,1.04,1.09,28.4,30.16,7.15,79.91-34.27,80.01Z"/>
    <path class="cls-1" d="M842.98,574.5c-2.39,78.26-34.59,149.18-85.63,201.7-27.71-18.01-57.45-32.45-88.64-43.02,23.21-49.94,35.57-103.21,36.81-158.68h16.8c14.25,10.83,31.88,16.93,50.9,16.98h1.96c19.06-.04,36.72-6.14,50.99-16.98h16.8Z"/>
    <path class="cls-1" d="M743.5,789.59c-47.31,42.95-108.23,71.17-175.41,77.37,37.66-32.81,69.18-72.66,92.25-116.82,29.2,9.7,57.1,22.93,83.16,39.45Z"/>
    <path class="cls-1" d="M511.92,866.96c-67.19-6.2-128.11-34.43-175.43-77.37,26.05-16.51,53.95-29.74,83.19-39.44,23.1,44.18,54.6,84.02,92.24,116.81Z"/>
    <path class="cls-1" d="M411.32,733.16c-31.22,10.6-60.97,25.04-88.67,43.05-51.02-52.53-83.24-123.44-85.62-201.71h16.8c14.25,10.83,31.88,16.93,50.9,16.98h1.96c19.08-.04,36.74-6.14,51-16.98h16.82c1.24,55.45,13.6,108.74,36.81,158.66Z"/>
    <path class="cls-1" d="M686.76,574.5c-1.25,53.53-13.37,104.93-36.11,153.01-32.81-9.45-66.8-14.62-101.28-15.41-3.12-.08-6.25-.11-9.38-.11s-6.25.04-9.38.11c-34.49.79-68.46,5.96-101.24,15.41-22.74-48.09-34.86-99.49-36.11-153.01h293.49Z"/>
    <path class="cls-1" d="M642.08,744.57c-23.17,43.32-54.87,82.19-92.71,113.69-3.09,2.58-6.2,5.1-9.38,7.56-3.18-2.46-6.3-4.99-9.38-7.56-37.8-31.49-69.5-70.35-92.68-113.69,30.05-8.35,61.13-12.96,92.68-13.72,3.12-.08,6.25-.11,9.38-.11s6.25.04,9.38.11c31.54.76,62.64,5.38,92.71,13.72Z"/>
    <path class="cls-1" d="M686.75,555.75h-293.49c1.26-53.61,13.42-105.05,36.22-153.17h44.21c18.94,11.99,41.3,18.64,65.21,18.71h2.14c23.92-.06,46.31-6.71,65.27-18.71h44.07s.09-.03.13-.04c22.8,48.19,34.96,99.65,36.22,153.21Z"/>
  </g>
</svg>